<?xml version="1.0" encoding="UTF-8"?>
<svg version="1.1" xmlns="http://www.w3.org/2000/svg" width="370" height="359">
<path d="M0 0 C0.88494644 -0.00095673 1.76989288 -0.00191345 2.68165588 -0.00289917 C4.54664176 -0.00357734 6.41163004 -0.00174848 8.27661133 0.00244141 C11.11610269 0.00778839 13.95543543 0.00248733 16.79492188 -0.00390625 C18.6132816 -0.00324528 20.43164122 -0.00196373 22.25 0 C23.09187363 -0.00202423 23.93374725 -0.00404846 24.8011322 -0.00613403 C29.53059909 0.01247877 34.00479658 0.42166864 38.69140625 1.1328125 C40.36752824 0.85084805 42.03569815 0.51689526 43.69140625 0.1328125 C64.27810775 -1.15695675 82.68317082 4.05512092 98.3046875 17.80859375 C104.5473737 23.88780535 109.0492164 30.34777571 113.00390625 38.0703125 C113.32963623 38.70203369 113.65536621 39.33375488 113.9909668 39.98461914 C118.52746098 49.29003648 120.25686482 58.51226578 120.19140625 68.8203125 C120.18641113 69.86469482 120.18141602 70.90907715 120.17626953 71.98510742 C119.78734994 89.40468202 112.82358809 105.52408014 100.69140625 118.1328125 C85.1755916 131.85912297 67.92153342 138.77010704 47.21484375 138.37109375 C43.69140625 138.1328125 43.69140625 138.1328125 40.48046875 137.55078125 C37.65228078 137.12694916 36.38943188 137.43955941 33.69140625 138.1328125 C32.28074183 138.23439424 30.86633503 138.29059943 29.45214844 138.30981445 C28.62318054 138.32264969 27.79421265 138.33548492 26.94012451 138.34870911 C26.04851624 138.35609604 25.15690796 138.36348297 24.23828125 138.37109375 C23.30526184 138.3791655 22.37224243 138.38723724 21.41094971 138.39555359 C19.43056078 138.40938162 17.45014814 138.4201095 15.46972656 138.42797852 C13.47225817 138.43941194 11.4748182 138.45972374 9.47753906 138.48950195 C-12.31478144 138.81402985 -32.62405276 135.58269746 -49.30859375 120.1328125 C-61.94474395 107.41833905 -69.86401414 91.04559967 -71.30859375 73.1328125 C-71.36144531 72.48441406 -71.41429688 71.83601563 -71.46875 71.16796875 C-72.17537175 54.66988711 -65.42529957 38.21481241 -56.05859375 24.9453125 C-55.19234375 24.048125 -55.19234375 24.048125 -54.30859375 23.1328125 C-53.64859375 23.1328125 -52.98859375 23.1328125 -52.30859375 23.1328125 C-52.06625 22.55144531 -51.82390625 21.97007813 -51.57421875 21.37109375 C-45.91816928 11.36826552 -30.84662582 5.22566643 -20.30859375 2.2578125 C-18.65005464 1.84836066 -16.98273875 1.4728732 -15.30859375 1.1328125 C-14.459021 0.96007812 -13.60944824 0.78734375 -12.73413086 0.609375 C-8.46508779 0.01546351 -4.30431538 -0.01032462 0 0 Z M-25.30859375 13.1328125 C-26.18515625 13.49503906 -27.06171875 13.85726562 -27.96484375 14.23046875 C-34.41704199 17.16781209 -40.20058945 21.2095658 -45.30859375 26.1328125 C-45.30859375 26.7928125 -45.30859375 27.4528125 -45.30859375 28.1328125 C-45.96859375 28.1328125 -46.62859375 28.1328125 -47.30859375 28.1328125 C-51.80405661 33.53622599 -55.63991008 39.6271802 -58.30859375 46.1328125 C-58.68113281 47.03 -59.05367187 47.9271875 -59.4375 48.8515625 C-64.68746586 63.33927316 -63.89157497 79.267685 -57.46875 93.17578125 C-50.01606267 108.74958196 -39.45112997 120.11750031 -22.89648438 126.40039062 C-7.33752939 131.71056133 9.73987749 130.83409747 24.69140625 124.1328125 C39.76183739 116.08930428 50.43328658 103.9350584 56.06640625 87.8203125 C61.20580288 70.84273305 59.01024722 53.99723353 50.7109375 38.39453125 C47.59823798 33.36725059 43.92310554 29.23918272 39.69140625 25.1328125 C39.05460937 24.48699219 38.4178125 23.84117188 37.76171875 23.17578125 C25.97576765 11.9522303 11.28223897 8.63264811 -4.46191406 8.70874023 C-11.92526848 8.90672311 -18.41358503 10.17919219 -25.30859375 13.1328125 Z M34.69140625 10.1328125 C37.17206112 12.71682799 39.7760686 15.06812308 42.50390625 17.3828125 C55.26427719 28.53334072 64.57427434 43.98535098 65.84594727 61.22827148 C66.87395457 82.18737719 62.05873906 100.18857731 47.69140625 116.1328125 C43.05662093 120.6865701 38.22582127 124.72701864 32.69140625 128.1328125 C36.30314737 129.93868306 40.6140718 127.61125251 44.31494141 126.44238281 C59.13495449 121.49907851 71.53460488 111.02756935 78.69140625 97.1328125 C85.40824663 81.72769547 88.05299329 64.21331865 82.01171875 48.01171875 C74.58133602 31.80996705 63.38473931 19.05359016 46.69140625 12.1328125 C42.55153609 10.72946668 39.06521662 9.86773308 34.69140625 10.1328125 Z M60.69140625 10.1328125 C61.408125 10.70257813 62.12484375 11.27234375 62.86328125 11.859375 C78.43234722 24.37483963 89.34523245 38.93103443 92.41015625 59.265625 C94.45402546 80.10173608 88.97399767 98.01669355 75.98046875 114.2734375 C72.10212054 118.92745536 72.10212054 118.92745536 69.69140625 120.1328125 C69.69140625 120.7928125 69.69140625 121.4528125 69.69140625 122.1328125 C69.13453125 122.3803125 68.57765625 122.6278125 68.00390625 122.8828125 C65.29169498 124.34887265 63.0555326 126.16270721 60.69140625 128.1328125 C67.54728126 127.69751885 72.62200011 126.31642655 78.69140625 123.1328125 C79.88056641 122.53339844 79.88056641 122.53339844 81.09375 121.921875 C94.93758708 114.35478554 104.38979153 101.90995528 109.62890625 87.1953125 C114.19658049 71.14989274 112.06093114 54.89141009 104.69140625 40.1328125 C96.16846885 25.61618845 83.14326969 14.44163388 66.69140625 10.1328125 C63.22955745 9.79038231 63.22955745 9.79038231 60.69140625 10.1328125 Z " fill="#468AF0" transform="translate(155.30859375,77.8671875)"/>
<path d="M0 0 C2.48534058 -0.04787173 4.94920792 -0.00431314 7.43359375 0.078125 C8.94759766 0.12066406 8.94759766 0.12066406 10.4921875 0.1640625 C46.14203911 1.89503795 79.9805825 18.95098204 104.18359375 44.953125 C109.57137893 50.90518784 114.0767924 57.341774 118.43359375 64.078125 C118.97628906 64.89667969 119.51898438 65.71523437 120.078125 66.55859375 C138.59352365 95.72401062 143.59571414 132.65234863 136.43359375 166.078125 C135.31622096 170.83068394 133.97563688 175.44675057 132.43359375 180.078125 C132.22895508 180.70251465 132.02431641 181.3269043 131.81347656 181.97021484 C126.66368325 197.4465369 119.07171798 210.70523836 108.71875 223.28515625 C106.38668832 226.04278077 106.38668832 226.04278077 104.43359375 229.078125 C103.77359375 229.078125 103.11359375 229.078125 102.43359375 229.078125 C102.43359375 229.738125 102.43359375 230.398125 102.43359375 231.078125 C101.77359375 231.078125 101.11359375 231.078125 100.43359375 231.078125 C100.0778125 231.93470703 100.0778125 231.93470703 99.71484375 232.80859375 C95.27842807 240.66700079 85.80613467 246.19353133 78.43359375 251.078125 C77.27730469 251.90570313 77.27730469 251.90570313 76.09765625 252.75 C47.03817934 272.73411977 10.04503399 277.71611377 -24.04443359 271.57861328 C-56.57150583 265.12357958 -86.64618739 246.57280345 -106.56640625 220.078125 C-107.45199219 218.91603516 -107.45199219 218.91603516 -108.35546875 217.73046875 C-121.01023991 200.42405797 -127.90120797 181.84423836 -132.56640625 161.078125 C-132.75203125 160.30984375 -132.93765625 159.5415625 -133.12890625 158.75 C-138.77381736 124.27572144 -130.2482561 87.84346757 -110.34765625 59.33203125 C-107.83734236 55.84816613 -105.22805198 52.44716797 -102.56640625 49.078125 C-101.50873047 47.67433594 -101.50873047 47.67433594 -100.4296875 46.2421875 C-99.81480469 45.52804688 -99.19992188 44.81390625 -98.56640625 44.078125 C-97.90640625 44.078125 -97.24640625 44.078125 -96.56640625 44.078125 C-96.29828125 43.48 -96.03015625 42.881875 -95.75390625 42.265625 C-94.56723219 40.07964646 -93.47041512 38.66479906 -91.56640625 37.078125 C-90.90640625 37.078125 -90.24640625 37.078125 -89.56640625 37.078125 C-89.56640625 36.418125 -89.56640625 35.758125 -89.56640625 35.078125 C-65.05632048 12.70441754 -32.91157487 1.00187443 0 0 Z M-77.56640625 33.078125 C-78.95841205 34.0420095 -80.35374471 35.0011265 -81.75390625 35.953125 C-82.68203125 36.654375 -83.61015625 37.355625 -84.56640625 38.078125 C-84.56640625 38.738125 -84.56640625 39.398125 -84.56640625 40.078125 C-85.22640625 40.078125 -85.88640625 40.078125 -86.56640625 40.078125 C-86.56640625 40.738125 -86.56640625 41.398125 -86.56640625 42.078125 C-87.20578125 42.34625 -87.84515625 42.614375 -88.50390625 42.890625 C-90.89772311 43.96480252 -90.89772311 43.96480252 -91.56640625 47.078125 C-92.22640625 47.078125 -92.88640625 47.078125 -93.56640625 47.078125 C-93.56640625 47.738125 -93.56640625 48.398125 -93.56640625 49.078125 C-94.22640625 49.078125 -94.88640625 49.078125 -95.56640625 49.078125 C-120.14119374 75.6722434 -128.51145852 110.78897793 -127.69384766 145.91113281 C-126.60605895 172.94330724 -115.0188984 199.64860368 -97.56640625 220.078125 C-96.75300781 221.04234375 -95.93960938 222.0065625 -95.1015625 223 C-89.46723858 229.44431361 -83.37723903 234.9058404 -76.56640625 240.078125 C-75.80070312 240.67109375 -75.035 241.2640625 -74.24609375 241.875 C-46.62704906 262.2850059 -11.41801653 269.99097204 22.43359375 265.390625 C24.44309166 264.99905842 26.44324136 264.55760763 28.43359375 264.078125 C29.09697754 263.92214844 29.76036133 263.76617187 30.44384766 263.60546875 C51.70747307 258.50106434 70.86155451 249.47903472 87.43359375 235.078125 C88.66073053 234.09641558 89.88948839 233.11672249 91.12109375 232.140625 C91.88421875 231.46 92.64734375 230.779375 93.43359375 230.078125 C93.43359375 229.418125 93.43359375 228.758125 93.43359375 228.078125 C94.09359375 228.078125 94.75359375 228.078125 95.43359375 228.078125 C95.43359375 227.418125 95.43359375 226.758125 95.43359375 226.078125 C96.09359375 226.078125 96.75359375 226.078125 97.43359375 226.078125 C115.20403995 207.04094639 127.19838086 182.75003083 131.43359375 157.078125 C131.61664063 156.07007813 131.7996875 155.06203125 131.98828125 154.0234375 C136.05236295 118.01709962 126.99570719 83.36080704 104.73486328 54.69921875 C101.20384847 50.30035603 97.54119501 45.94874926 93.43359375 42.078125 C92.77359375 42.078125 92.11359375 42.078125 91.43359375 42.078125 C91.43359375 41.418125 91.43359375 40.758125 91.43359375 40.078125 C89.41051864 38.2764659 87.38685567 36.60540778 85.24609375 34.953125 C84.29367798 34.21497559 84.29367798 34.21497559 83.32202148 33.46191406 C35.83003768 -2.78646787 -29.99885818 -3.66038599 -77.56640625 33.078125 Z " fill="#478BF0" transform="translate(177.56640625,10.921875)"/>
<path d="M0 0 C7.25899226 -0.10174864 14.51779934 -0.17161187 21.77734375 -0.21972656 C24.24486158 -0.23979295 26.71233215 -0.26705244 29.1796875 -0.30175781 C32.73449393 -0.35049306 36.28866944 -0.37301939 39.84375 -0.390625 C41.48796936 -0.42159271 41.48796936 -0.42159271 43.16540527 -0.45318604 C49.54664616 -0.45503896 54.77484785 0.06922816 60 4 C62.89565057 7.38847116 64.22704577 10.60140427 64.5 15.0625 C63.92863291 19.56201587 63.03433218 21.64626443 60 25 C56.75 26.375 56.75 26.375 54 27 C54 27.66 54 28.32 54 29 C55.3303125 29.12375 55.3303125 29.12375 56.6875 29.25 C60.98901931 30.2239289 63.73794691 32.00101382 66.1171875 35.76953125 C67.91130985 40.30246869 67.51808589 45.22209677 67 50 C64.44474697 55.39442306 61.16942608 57.41528696 56 60 C54.21268076 60.0908238 52.42194511 60.11753799 50.63232422 60.11352539 C49.51131317 60.11344986 48.39030212 60.11337433 47.23532104 60.11329651 C46.02071198 60.10813522 44.80610291 60.10297394 43.5546875 60.09765625 C42.31453888 60.0962413 41.07439026 60.09482635 39.79666138 60.09336853 C36.49881867 60.08871096 33.20102454 60.07972439 29.90319824 60.06866455 C26.53833613 60.05843731 23.17346692 60.05386809 19.80859375 60.04882812 C13.20571007 60.03778269 6.60285901 60.02103247 0 60 C2.91765 58.0549 4.62537285 57.54723683 8 57 C8.99293809 54.02118573 9.12119785 52.08512761 9.11352539 48.9777832 C9.11341209 47.44653557 9.11341209 47.44653557 9.11329651 45.88435364 C9.10813522 44.78427475 9.10297394 43.68419586 9.09765625 42.55078125 C9.0962413 41.4230278 9.09482635 40.29527435 9.09336853 39.13334656 C9.0877647 35.52637088 9.07521153 31.91945696 9.0625 28.3125 C9.05748549 25.86914152 9.0529225 23.42578207 9.04882812 20.98242188 C9.03779403 14.98826013 9.02105215 8.99413448 9 3 C6.03 2.67 3.06 2.34 0 2 C0 1.34 0 0.68 0 0 Z M31 2 C31 10.58 31 19.16 31 28 C38.25220667 27.68079592 38.25220667 27.68079592 40.9375 25.75 C43.57973169 21.39808898 43.52617346 15.95328809 43 11 C42.2355059 8.13066499 41.24287518 5.72476481 40 3 C37.32917961 1.47825081 37.32917961 1.47825081 31 2 Z M31 29 C31 38.57 31 48.14 31 58 C35.58755953 59.14688988 37.61145144 58.54411894 42 57 C45.47670253 53.52329747 45.19461436 48.92153907 45.3125 44.1875 C45.21756452 38.27228907 44.71827395 34.6921076 41 30 C37.7 29.67 34.4 29.34 31 29 Z " fill="#FEFEFE" transform="translate(37,276)"/>
<path d="M0 0 C0.66 0 1.32 0 2 0 C2 5.61 2 11.22 2 17 C14.87 17 27.74 17 41 17 C40.67 17.66 40.34 18.32 40 19 C39.01 19 38.02 19 37 19 C38.65 21.97 40.3 24.94 42 28 C44.475 23.545 44.475 23.545 47 19 C45.515 18.505 45.515 18.505 44 18 C44 17.67 44 17.34 44 17 C48.62 17 53.24 17 58 17 C58 17.66 58 18.32 58 19 C56.65035156 19.33644531 56.65035156 19.33644531 55.2734375 19.6796875 C51.43382776 21.22836064 50.07261507 22.83337973 47.625 26.125 C46.93664062 27.03507812 46.24828125 27.94515625 45.5390625 28.8828125 C45.03117187 29.58148438 44.52328125 30.28015625 44 31 C46.98293173 37.20344209 50.20081734 43.13832886 53.86328125 48.96875 C55 51 55 51 55 53 C56.98 53.66 58.96 54.32 61 55 C59 57 59 57 56.38623047 57.13525391 C55.30744629 57.08288574 54.22866211 57.03051758 53.1171875 56.9765625 C51.95058594 56.925 50.78398437 56.8734375 49.58203125 56.8203125 C48.35871094 56.75585938 47.13539063 56.69140625 45.875 56.625 C44.64394531 56.56828125 43.41289062 56.5115625 42.14453125 56.453125 C39.09579194 56.31132317 36.04783612 56.15988027 33 56 C34.32 55.34 35.64 54.68 37 54 C35.02 50.37 33.04 46.74 31 43 C30.030625 44.258125 29.06125 45.51625 28.0625 46.8125 C27.24458984 47.87404297 27.24458984 47.87404297 26.41015625 48.95703125 C24.83143752 51.04125052 24.83143752 51.04125052 24 54 C25.32 54.33 26.64 54.66 28 55 C28 55.33 28 55.66 28 56 C26.24623047 55.96519531 26.24623047 55.96519531 24.45703125 55.9296875 C22.90886058 55.91092179 21.36068297 55.89272245 19.8125 55.875 C18.65911133 55.84986328 18.65911133 55.84986328 17.48242188 55.82421875 C13.12529468 55.78681852 10.01336599 56.13331815 6 58 C-0.31390489 58.63139049 -5.68395038 57.65937143 -11 54 C-13.91896879 50.0512247 -14.3595798 47.24932527 -14.29296875 42.38671875 C-14.28330078 41.13955078 -14.27363281 39.89238281 -14.26367188 38.60742188 C-14.23853516 37.31384766 -14.21339844 36.02027344 -14.1875 34.6875 C-14.17396484 33.37458984 -14.16042969 32.06167969 -14.14648438 30.70898438 C-14.11117443 27.47223923 -14.0618528 24.23632895 -14 21 C-15.98 20.67 -17.96 20.34 -20 20 C-19 17 -19 17 -17.14453125 15.859375 C-16.37496094 15.49328125 -15.60539063 15.1271875 -14.8125 14.75 C-10.04448444 12.23733148 -7.18807555 9.28001579 -4 5 C-2.70213607 3.30556653 -1.38089233 1.62748024 0 0 Z M11 20 C9.46331135 20.22467831 7.92031946 20.40796805 6.375 20.5625 C5.14910156 20.68818359 5.14910156 20.68818359 3.8984375 20.81640625 C2.95871094 20.90728516 2.95871094 20.90728516 2 21 C1.97074498 24.68748309 1.95311582 28.37493592 1.9375 32.0625 C1.92912109 33.10083984 1.92074219 34.13917969 1.91210938 35.20898438 C1.49749178 44.45092432 1.49749178 44.45092432 4.25 53 C6.02671162 54.19020739 6.02671162 54.19020739 8.5 54.125 C11.40031278 53.13385844 11.40031278 53.13385844 12.8125 49.4375 C13.204375 48.303125 13.59625 47.16875 14 46 C14.125 51.75 14.125 51.75 13 54 C15.90275498 54.12094812 17.36226059 54.10359454 20 53 C23.95531517 49.08729145 28.09097704 44.29289339 30 39 C29.29969454 36.82995442 29.29969454 36.82995442 27.859375 34.7421875 C27.36566406 33.95199219 26.87195313 33.16179687 26.36328125 32.34765625 C25.83089844 31.53167969 25.29851562 30.71570313 24.75 29.875 C24.23308594 29.05128906 23.71617187 28.22757812 23.18359375 27.37890625 C20.40274073 22.94597326 20.40274073 22.94597326 17 19 C13.2236068 18.7018576 13.2236068 18.7018576 11 20 Z " fill="#FEFEFE" transform="translate(267,280)"/>
<path d="M0 0 C2.64 0 5.28 0 8 0 C7.95875 1.216875 7.9175 2.43375 7.875 3.6875 C8.01177738 5.92649143 8.01177738 5.92649143 9 8 C12.1147866 10.23394405 15.42439923 11.65022693 19 13 C19 13.66 19 14.32 19 15 C19.66 15 20.32 15 21 15 C21.67667998 16.24460783 22.34094719 17.49596896 23 18.75 C23.37125 19.44609375 23.7425 20.1421875 24.125 20.859375 C25 23 25 23 25 27 C22.36 27 19.72 27 17 27 C16.62875 25.906875 16.2575 24.81375 15.875 23.6875 C14.59568115 20.73430602 14.01196543 20.00843019 11.25 18.0625 C6.22926777 16.42110677 2.64308732 16.37996705 -2.3125 18.25 C-5.13498127 20.08789478 -6.08799273 20.80797456 -7 24 C-7.58345476 26.95746492 -7.58345476 26.95746492 -7 30 C-3.12643289 34.89094368 0.51534867 36.10569226 6.3125 37.5 C14.92401575 39.8059207 21.88799407 42.25024261 27 50 C27.96111638 56.04231251 27.92729286 61.96708874 25.375 67.5625 C19.65874518 73.42918258 16.12958608 75.78959496 8 77 C8 79.31 8 81.62 8 84 C5.36 84 2.72 84 0 84 C0 81.69 0 79.38 0 77 C-0.59167969 76.82984375 -1.18335938 76.6596875 -1.79296875 76.484375 C-8.37354884 74.46618731 -12.85753214 72.44123079 -16.25 66.1875 C-17.99222013 62.44313174 -18.65825435 59.10094783 -19 55 C-16.36 55 -13.72 55 -11 55 C-10.72027344 55.68707031 -10.44054687 56.37414062 -10.15234375 57.08203125 C-7.53000982 62.99882636 -7.53000982 62.99882636 -2.6875 67.125 C2.79143332 68.42508587 7.45710985 68.73102714 12.875 67 C16.11699567 64.92512277 16.53984144 64.57728687 17.5625 61.125 C18.15485503 57.49100173 18.10037864 55.15056795 16 52 C11.3762206 48.41939034 7.05256277 46.91497645 1.5 45.5 C-5.57636794 43.69670764 -11.96616428 41.58152144 -16 35 C-17.84152373 29.47542882 -17.8169855 24.08994339 -15.375 18.75 C-12.47945907 13.64978404 -8.84609837 10.3633773 -3.125 8.6875 C-1.578125 8.3471875 -1.578125 8.3471875 0 8 C0 5.36 0 2.72 0 0 Z " fill="#478CF1" transform="translate(149,105)"/>
<path d="M0 0 C4.05966169 1.99421978 6.66816088 4.14592508 9 8 C9.43237305 11.11621094 9.43237305 11.11621094 9.51171875 14.734375 C9.54716797 16.02988281 9.58261719 17.32539063 9.61914062 18.66015625 C9.64223867 20.02343226 9.66502114 21.38671364 9.6875 22.75 C9.72068648 24.12893862 9.75517738 25.5078465 9.79101562 26.88671875 C9.87352291 30.25773059 9.94266771 33.62848128 10 37 C11.32 37.66 12.64 38.32 14 39 C14 39.33 14 39.66 14 40 C5.42 40 -3.16 40 -12 40 C-10.68 39.34 -9.36 38.68 -8 38 C-8.33 27.11 -8.66 16.22 -9 5 C-12.72644183 3.57524897 -12.72644183 3.57524897 -14.71801758 4.99536133 C-16.63320725 7.99014754 -16.43966169 10.54342278 -16.51171875 14.07421875 C-16.52966995 14.7580513 -16.54762115 15.44188385 -16.56611633 16.1464386 C-16.62022075 18.32673 -16.6541134 20.50680256 -16.6875 22.6875 C-16.7206732 24.16734817 -16.75516287 25.64716745 -16.79101562 27.12695312 C-16.87594524 30.75109169 -16.94275635 34.37530652 -17 38 C-15.68 38.66 -14.36 39.32 -13 40 C-21.58 40 -30.16 40 -39 40 C-38.67 39.34 -38.34 38.68 -38 38 C-36.68 38 -35.36 38 -34 38 C-34.33 26.78 -34.66 15.56 -35 4 C-36.32 3.34 -37.64 2.68 -39 2 C-39 1.67 -39 1.34 -39 1 C-32.07 1 -25.14 1 -18 1 C-17.67 1.66 -17.34 2.32 -17 3 C-16.29746094 2.51402344 -15.59492188 2.02804687 -14.87109375 1.52734375 C-10.08841147 -1.01691308 -5.28511236 -0.6516873 0 0 Z " fill="#FEFEFE" transform="translate(234,296)"/>
<path d="M0 0 C3.72517585 2.28809292 6.15802606 4.6248977 8.4375 8.375 C8.50258368 12.2149374 8.25268512 14.33156305 5.875 17.375 C2.20035891 18.88254506 -0.83413172 18.7169076 -4.5625 17.375 C-7.125 14.9375 -7.125 14.9375 -8.5625 11.375 C-8.57773116 7.96829611 -8.17119913 4.7228452 -7.5625 1.375 C-8.8825 1.375 -10.2025 1.375 -11.5625 1.375 C-12.2225 1.375 -12.8825 1.375 -13.5625 1.375 C-15.38258608 6.82800689 -15.89904415 11.64287464 -15.875 17.375 C-15.89111328 18.14328125 -15.90722656 18.9115625 -15.92382812 19.703125 C-15.92832586 24.99246275 -15.07089871 28.69587163 -12.5625 33.375 C-9.65810619 35.25893112 -8.00952651 35.3936261 -4.5625 35.25 C-0.24819869 33.99166212 2.47520223 32.02465332 4.75 28.125 C4.976875 27.5475 5.20375 26.97 5.4375 26.375 C6.4275 26.705 7.4175 27.035 8.4375 27.375 C7.4475 29.355 6.4575 31.335 5.4375 33.375 C4.7775 33.375 4.1175 33.375 3.4375 33.375 C3.1075 34.365 2.7775 35.355 2.4375 36.375 C-3.09846499 40.06976235 -9.02633595 41.34030537 -15.5625 40.375 C-22.15522096 38.69663331 -27.77261587 35.79376233 -31.875 30.25 C-34.85676795 24.38669159 -35.28492247 18.01460707 -33.625 11.6875 C-31.37330959 5.83518022 -26.74821301 1.9705246 -21.23046875 -0.79296875 C-14.67559842 -2.83716696 -6.30459359 -2.88760012 0 0 Z " fill="#FEFEFE" transform="translate(142.5625,297.625)"/>
<path d="M0 0 C3.75214831 2.03617676 6.48182114 4.65069148 8.66015625 8.28125 C9.5353899 11.25204306 10.15449329 14.22731185 10.66015625 17.28125 C8.10292396 18.55986615 6.29278523 18.39461609 3.43359375 18.37890625 C2.40234375 18.37568359 1.37109375 18.37246094 0.30859375 18.36914062 C-1.31175781 18.35657227 -1.31175781 18.35657227 -2.96484375 18.34375 C-4.59679687 18.33698242 -4.59679687 18.33698242 -6.26171875 18.33007812 C-8.95448164 18.31826776 -11.64713563 18.30179778 -14.33984375 18.28125 C-13.91432479 20.20061213 -13.47392437 22.11667874 -13.02734375 24.03125 C-12.66189453 25.63226563 -12.66189453 25.63226563 -12.2890625 27.265625 C-11.34830893 30.25435651 -10.50766916 32.03958139 -8.33984375 34.28125 C-4.04167378 35.31599462 -0.60449222 35.44433595 3.66015625 34.28125 C3.66015625 33.62125 3.66015625 32.96125 3.66015625 32.28125 C4.32015625 32.28125 4.98015625 32.28125 5.66015625 32.28125 C6.32015625 30.30125 6.98015625 28.32125 7.66015625 26.28125 C8.65015625 26.28125 9.64015625 26.28125 10.66015625 26.28125 C9.18765501 32.0373912 6.81115039 35.16912074 1.87109375 38.48046875 C-3.87502449 41.74270719 -8.98206925 42.20387901 -15.40625 40.84375 C-21.90586473 38.80864558 -27.5670264 34.53141514 -30.83984375 28.53125 C-31.93492607 21.41321493 -32.49589481 14.5191681 -28.8203125 8.0703125 C-21.74966017 -0.47416973 -10.51272537 -3.22928459 0 0 Z M-10.33984375 0.28125 C-13.3927758 1.89733259 -13.3927758 1.89733259 -14.0234375 4.078125 C-14.38464373 6.59319061 -14.43577021 8.99083935 -14.40234375 11.53125 C-14.39332031 12.42328125 -14.38429687 13.3153125 -14.375 14.234375 C-14.36339844 14.90984375 -14.35179687 15.5853125 -14.33984375 16.28125 C-12.86077483 16.30814216 -11.38156892 16.32759621 -9.90234375 16.34375 C-8.66677734 16.36115234 -8.66677734 16.36115234 -7.40625 16.37890625 C-5.34820437 16.51392348 -5.34820437 16.51392348 -4.33984375 15.28125 C-4.24976826 12.55601816 -4.24976826 12.55601816 -4.46484375 9.40625 C-4.50867188 8.33632813 -4.5525 7.26640625 -4.59765625 6.1640625 C-5.07232967 3.06337771 -5.07232967 3.06337771 -7.89453125 1.3984375 C-8.70148438 1.02976562 -9.5084375 0.66109375 -10.33984375 0.28125 Z " fill="#FEFEFE" transform="translate(183.33984375,296.71875)"/>
<path d="M0 0 C0.66 0.33 1.32 0.66 2 1 C1.16855469 1.77923828 1.16855469 1.77923828 0.3203125 2.57421875 C-0.76636719 3.62029297 -0.76636719 3.62029297 -1.875 4.6875 C-2.95394531 5.71423828 -2.95394531 5.71423828 -4.0546875 6.76171875 C-6.08335887 9.09591291 -7.02992733 11.08467634 -8 14 C-8.66 13.67 -9.32 13.34 -10 13 C-7.55426749 7.20217529 -5.10557473 3.71314526 0 0 Z " fill="#4A91FA" transform="translate(142,115)"/>
</svg>
