<?xml version="1.0" encoding="UTF-8"?>
<svg version="1.1" xmlns="http://www.w3.org/2000/svg" width="820" height="820">
<path d="M0 0 C1.80809898 -0.00855011 1.80809898 -0.00855011 3.65272522 -0.01727295 C6.20003395 -0.02667523 8.74735459 -0.03323782 11.29467773 -0.03710938 C15.09056507 -0.04669919 18.88588261 -0.07772101 22.68164062 -0.109375 C44.44157143 -0.20394916 66.01034483 1.45860962 87.41015625 5.515625 C88.55121826 5.72654785 89.69228027 5.9374707 90.86791992 6.15478516 C164.66477585 20.13219615 234.14512107 53.22011951 289.78125 103.98046875 C291.344139 105.4033229 292.91871189 106.81351225 294.5078125 108.20703125 C299.99959265 113.03869759 305.22977514 118.10488006 310.41015625 123.265625 C311.07547363 123.9263501 311.74079102 124.5870752 312.42626953 125.26782227 C316.89427351 129.74970893 321.10210775 134.40160895 325.22265625 139.203125 C326.06828125 140.16734375 326.91390625 141.1315625 327.78515625 142.125 C346.36061987 163.67730074 362.53023551 187.2755232 376.22265625 212.203125 C376.70444336 213.07630371 377.18623047 213.94948242 377.68261719 214.84912109 C404.08230774 263.05389113 419.29074219 315.69262908 425.22265625 370.203125 C425.30927521 370.99878372 425.39589417 371.79444244 425.48513794 372.61421204 C426.20360119 379.74504227 426.39869551 386.81645096 426.42578125 393.98046875 C426.43148132 395.18586807 426.4371814 396.3912674 426.4430542 397.63319397 C426.45245648 400.1805027 426.45901907 402.72782334 426.46289062 405.27514648 C426.47248044 409.07103382 426.50350226 412.86635136 426.53515625 416.66210938 C426.62973041 438.42204018 424.96717163 459.99081358 420.91015625 481.390625 C420.6992334 482.53168701 420.48831055 483.67274902 420.27099609 484.84838867 C406.2935851 558.6452446 373.20566174 628.12558982 322.4453125 683.76171875 C321.02245835 685.32460775 319.612269 686.89918064 318.21875 688.48828125 C313.38708366 693.9800614 308.32090119 699.21024389 303.16015625 704.390625 C302.49943115 705.05594238 301.83870605 705.72125977 301.15795898 706.40673828 C296.67607232 710.87474226 292.0241723 715.0825765 287.22265625 719.203125 C286.2584375 720.04875 285.29421875 720.894375 284.30078125 721.765625 C262.74848051 740.34108862 239.15025805 756.51070426 214.22265625 770.203125 C212.91288818 770.92580566 212.91288818 770.92580566 211.57666016 771.66308594 C163.37189012 798.06277649 110.73315217 813.27121094 56.22265625 819.203125 C55.42699753 819.28974396 54.63133881 819.37636292 53.81156921 819.46560669 C46.68073898 820.18406994 39.60933029 820.37916426 32.4453125 820.40625 C31.23991318 820.41195007 30.03451385 820.41765015 28.79258728 820.42352295 C26.24527855 820.43292523 23.69795791 820.43948782 21.15063477 820.44335938 C17.35474743 820.45294919 13.55942989 820.48397101 9.76367188 820.515625 C-11.99625893 820.61019916 -33.56503233 818.94764038 -54.96484375 814.890625 C-56.10590576 814.67970215 -57.24696777 814.4687793 -58.42260742 814.25146484 C-132.21946335 800.27405385 -201.69980857 767.18613049 -257.3359375 716.42578125 C-258.8988265 715.0029271 -260.47339939 713.59273775 -262.0625 712.19921875 C-267.55428015 707.36755241 -272.78446264 702.30136994 -277.96484375 697.140625 C-278.96281982 696.14953735 -278.96281982 696.14953735 -279.98095703 695.13842773 C-284.44896101 690.65654107 -288.65679525 686.00464105 -292.77734375 681.203125 C-293.62296875 680.23890625 -294.46859375 679.2746875 -295.33984375 678.28125 C-313.91530737 656.72894926 -330.08492301 633.1307268 -343.77734375 608.203125 C-344.50002441 606.89335693 -344.50002441 606.89335693 -345.23730469 605.55712891 C-371.63699524 557.35235887 -386.84542969 504.71362092 -392.77734375 450.203125 C-392.86396271 449.40746628 -392.95058167 448.61180756 -393.03982544 447.79203796 C-393.75828869 440.66120773 -393.95338301 433.58979904 -393.98046875 426.42578125 C-393.98616882 425.22038193 -393.9918689 424.0149826 -393.9977417 422.77305603 C-394.00714398 420.2257473 -394.01370657 417.67842666 -394.01757812 415.13110352 C-394.02716794 411.33521618 -394.05818976 407.53989864 -394.08984375 403.74414062 C-394.18441791 381.98420982 -392.52185913 360.41543642 -388.46484375 339.015625 C-388.2539209 337.87456299 -388.04299805 336.73350098 -387.82568359 335.55786133 C-373.8482726 261.7610054 -340.76034924 192.28066018 -290 136.64453125 C-288.57714585 135.08164225 -287.1669565 133.50706936 -285.7734375 131.91796875 C-280.94177116 126.4261886 -275.87558869 121.19600611 -270.71484375 116.015625 C-269.7237561 115.01764893 -269.7237561 115.01764893 -268.71264648 113.99951172 C-264.23075982 109.53150774 -259.5788598 105.3236735 -254.77734375 101.203125 C-253.813125 100.3575 -252.84890625 99.511875 -251.85546875 98.640625 C-230.30316801 80.06516138 -206.70494555 63.89554574 -181.77734375 50.203125 C-180.90416504 49.72133789 -180.03098633 49.23955078 -179.13134766 48.74316406 C-130.92657762 22.34347351 -78.28783967 7.13503906 -23.77734375 1.203125 C-22.98168503 1.11650604 -22.18602631 1.02988708 -21.36625671 0.94064331 C-14.23542648 0.22218006 -7.16401779 0.02708574 0 0 Z " fill="#1B145E" transform="translate(393.77734375,-0.203125)"/>
<path d="M0 0 C1.92199219 -0.00580078 1.92199219 -0.00580078 3.8828125 -0.01171875 C45.08494725 0.0300684 84.33569172 13.92593234 116.25 40.125 C116.76288574 40.54233398 117.27577148 40.95966797 117.80419922 41.38964844 C149.17559099 67.04809701 171.04722197 102.48765849 179.77880859 142.09130859 C180.23467315 144.05884838 180.7646272 146.00876597 181.296875 147.95703125 C192.2328866 191.47257983 180.28886946 240.07738313 158.4296875 278.15673828 C145.9445154 298.98775183 128.13596196 318.27485545 108.25 332.125 C107.62963867 332.56263672 107.00927734 333.00027344 106.37011719 333.45117188 C84.99176253 348.3810778 60.26106673 359.19684935 34.5625 363.8125 C33.89831055 363.93189941 33.23412109 364.05129883 32.54980469 364.17431641 C-6.72385967 370.8030663 -48.95178752 365.49890233 -83.97363281 346.10742188 C-85.72778059 345.13728847 -87.50060503 344.20117739 -89.2734375 343.265625 C-103.41816524 335.57343598 -115.82665005 325.63834602 -127.36279297 314.4609375 C-128.5904532 313.27865014 -129.84238411 312.12167882 -131.09765625 310.96875 C-162.02919042 281.77746549 -180.75846335 235.92967229 -182.0295105 193.83702087 C-182.131471 189.4122602 -182.16875715 184.98830796 -182.1875 180.5625 C-182.19394531 179.71613983 -182.20039063 178.86977966 -182.20703125 177.99777222 C-182.25989145 166.65939708 -181.22428646 156.19927985 -178.75 145.125 C-178.44111739 143.5758372 -178.13348526 142.02642345 -177.828125 140.4765625 C-170.50355438 107.51599471 -152.86251835 78.36579217 -129.75 54.125 C-129.02296875 53.34511719 -128.2959375 52.56523437 -127.546875 51.76171875 C-100.41158197 23.47066324 -62.13175685 6.45954821 -23.75 1.125 C-22.70706787 0.9703125 -22.70706787 0.9703125 -21.64306641 0.8125 C-14.45219543 -0.13714304 -7.24112775 -0.02159382 0 0 Z " fill="#1B145E" transform="translate(328.75,223.875)"/>
<path d="M0 0 C1.01031784 -0.00350464 1.01031784 -0.00350464 2.04104614 -0.00708008 C11.90334036 -0.01992028 21.3554984 0.64129405 31.02734375 2.59375 C36.52755936 3.53185784 41.80438116 3.78690668 47.25 2.3125 C57.20254329 -0.12293533 67.43592108 0.01765094 77.625 0 C78.71532028 -0.00450165 78.71532028 -0.00450165 79.82766724 -0.00909424 C89.88860533 -0.03199795 99.49004694 0.64513945 109.42895508 2.31445312 C118.15992383 3.67743431 126.21736688 2.69147394 134.875 1.25 C142.41800203 0.04195637 149.88465746 0.00720317 157.5 0 C158.23664886 -0.00100708 158.97329773 -0.00201416 159.73226929 -0.00305176 C171.18160318 0.00751308 182.24534648 0.65744463 193.51708984 2.81005859 C195.88733719 3.25230189 198.26104734 3.62484739 200.64453125 3.98828125 C231.58124287 9.02558087 261.47633022 23.85059836 285.875 43.25 C286.75454346 43.94125977 286.75454346 43.94125977 287.65185547 44.64648438 C301.72538369 55.80108875 314.40362324 68.65558924 324.875 83.25 C325.59550537 84.25256836 325.59550537 84.25256836 326.33056641 85.27539062 C343.82616423 109.92284746 355.42902284 136.74906804 361.875 166.25 C362.05434082 167.06774902 362.23368164 167.88549805 362.41845703 168.72802734 C367.40346274 192.83129725 366.70311151 220.19947714 361.875 244.25 C361.51535156 246.18746094 361.51535156 246.18746094 361.1484375 248.1640625 C359.58812696 256.0342003 357.3968653 263.638552 354.875 271.25 C354.55144531 272.27867187 354.22789062 273.30734375 353.89453125 274.3671875 C348.28321049 291.26192221 340.23835534 307.76466597 329.875 322.25 C329.43607422 322.87390625 328.99714844 323.4978125 328.54492188 324.140625 C321.12500187 334.62551891 312.86464133 344.08760679 303.875 353.25 C303.28227295 353.85593994 302.6895459 354.46187988 302.07885742 355.08618164 C288.36519436 368.97045417 271.94531677 379.93104073 254.875 389.25 C254.23852539 389.59772461 253.60205078 389.94544922 252.94628906 390.30371094 C232.12300028 401.41452354 208.6862949 408.17098146 185.33862305 410.95458984 C183.25058012 411.20496463 181.16905506 411.5087966 179.08984375 411.82421875 C172.86504037 412.58887638 166.5747284 412.48848334 160.3125 412.5 C159.2886319 412.50450165 159.2886319 412.50450165 158.24407959 412.50909424 C148.23997862 412.53331724 138.59518398 411.74108242 128.70629883 410.18554688 C120.05515223 408.91811683 112.46555591 409.79757611 103.875 411.25 C96.02553021 412.42751827 88.17540475 412.48005392 80.25 412.5 C79.57224518 412.50266876 78.89449036 412.50533752 78.19619751 412.50808716 C68.12830582 412.52686695 58.30271185 411.91403399 48.35888672 410.22949219 C40.49863403 408.94014151 33.63305544 409.66504134 25.875 411.296875 C17.93820453 412.79617134 9.92111497 412.55436768 1.875 412.5 C1.04974823 412.49656586 0.22449646 412.49313171 -0.62576294 412.48959351 C-55.55538437 412.22099389 -105.34705336 392.3838085 -145.125 354.25 C-145.66012207 353.74210937 -146.19524414 353.23421875 -146.74658203 352.7109375 C-154.71471234 345.11466886 -161.74150927 337.21772009 -168.125 328.25 C-168.52251465 327.70214844 -168.9200293 327.15429688 -169.32958984 326.58984375 C-186.60593522 302.61848002 -198.26788446 275.12892467 -204.125 246.25 C-204.35832031 245.17363281 -204.59164062 244.09726562 -204.83203125 242.98828125 C-210.05410495 217.25360151 -209.82080661 185.57040381 -203.125 160.25 C-202.90005859 159.36231934 -202.67511719 158.47463867 -202.44335938 157.56005859 C-199.50863467 146.10614338 -195.91453759 135.07028356 -191.125 124.25 C-190.83399414 123.58049316 -190.54298828 122.91098633 -190.24316406 122.22119141 C-176.06076506 89.82679116 -152.23868193 59.51540605 -123.125 39.25 C-122.5578125 38.84910156 -121.990625 38.44820312 -121.40625 38.03515625 C-104.38824621 26.05537727 -86.69559005 17.30253463 -67.125 10.25 C-65.4234375 9.61964844 -65.4234375 9.61964844 -63.6875 8.9765625 C-56.33779574 6.48005969 -48.72669851 5.0656275 -41.125 3.5625 C-40.04436279 3.34754883 -38.96372559 3.13259766 -37.8503418 2.91113281 C-25.27314908 0.53107212 -12.77972983 0.03182006 0 0 Z M-58.125 31.25 C-58.7859668 31.45431641 -59.44693359 31.65863281 -60.12792969 31.86914062 C-85.17220249 39.86604476 -107.88981232 54.54577624 -127.125 72.25 C-127.6725293 72.75225098 -128.22005859 73.25450195 -128.78417969 73.77197266 C-158.89405623 101.74646033 -181.96126119 144.72458327 -184.23887634 186.3302002 C-184.30464009 188.52124415 -184.34120037 190.71042521 -184.36328125 192.90234375 C-184.37325638 193.71096359 -184.38323151 194.51958344 -184.39350891 195.35270691 C-184.92290176 249.50716696 -169.43127109 296.68989756 -131.44018555 336.21826172 C-99.49740397 368.73119344 -53.67465894 389.27702755 -8.00415039 389.6953125 C10.8424794 389.72015462 28.68387068 388.44482453 46.875 383.25 C47.65222412 383.02892578 48.42944824 382.80785156 49.23022461 382.58007812 C94.28772895 369.46290073 134.52419917 339.24366884 157.7578125 298.171875 C167.34190138 280.6471943 174.94095187 261.89549823 178.875 242.25 C179.07585205 241.28271973 179.07585205 241.28271973 179.28076172 240.29589844 C184.70565393 213.45824271 183.22386359 183.60768155 175.875 157.25 C175.58979492 156.20513428 175.58979492 156.20513428 175.29882812 155.13916016 C168.07090748 129.42079663 154.52992244 105.23726169 136.875 85.25 C136.42157227 84.73099121 135.96814453 84.21198242 135.50097656 83.67724609 C128.82845162 76.07538151 121.87966989 69.47186598 113.875 63.25 C113.14667969 62.6209375 112.41835938 61.991875 111.66796875 61.34375 C98.2492389 49.87555356 82.13003704 41.85323811 65.875 35.25 C64.69035156 34.75757813 63.50570312 34.26515625 62.28515625 33.7578125 C55.26445523 30.93617523 48.26382004 28.85745652 40.875 27.25 C39.07869141 26.8478125 39.07869141 26.8478125 37.24609375 26.4375 C5.98725582 19.76894791 -27.66438048 21.77824359 -58.125 31.25 Z " fill="#4586EB" transform="translate(331.125,200.75)"/>
<path d="M0 0 C1.80809898 -0.00855011 1.80809898 -0.00855011 3.65272522 -0.01727295 C6.20003395 -0.02667523 8.74735459 -0.03323782 11.29467773 -0.03710938 C15.09056507 -0.04669919 18.88588261 -0.07772101 22.68164062 -0.109375 C44.44157143 -0.20394916 66.01034483 1.45860962 87.41015625 5.515625 C88.55121826 5.72654785 89.69228027 5.9374707 90.86791992 6.15478516 C164.66477585 20.13219615 234.14512107 53.22011951 289.78125 103.98046875 C291.344139 105.4033229 292.91871189 106.81351225 294.5078125 108.20703125 C299.99959265 113.03869759 305.22977514 118.10488006 310.41015625 123.265625 C311.07547363 123.9263501 311.74079102 124.5870752 312.42626953 125.26782227 C316.89427351 129.74970893 321.10210775 134.40160895 325.22265625 139.203125 C326.06828125 140.16734375 326.91390625 141.1315625 327.78515625 142.125 C346.36061987 163.67730074 362.53023551 187.2755232 376.22265625 212.203125 C376.70444336 213.07630371 377.18623047 213.94948242 377.68261719 214.84912109 C404.08230774 263.05389113 419.29074219 315.69262908 425.22265625 370.203125 C425.30927521 370.99878372 425.39589417 371.79444244 425.48513794 372.61421204 C426.20360119 379.74504227 426.39869551 386.81645096 426.42578125 393.98046875 C426.43148132 395.18586807 426.4371814 396.3912674 426.4430542 397.63319397 C426.45245648 400.1805027 426.45901907 402.72782334 426.46289062 405.27514648 C426.47248044 409.07103382 426.50350226 412.86635136 426.53515625 416.66210938 C426.62973041 438.42204018 424.96717163 459.99081358 420.91015625 481.390625 C420.6992334 482.53168701 420.48831055 483.67274902 420.27099609 484.84838867 C406.2935851 558.6452446 373.20566174 628.12558982 322.4453125 683.76171875 C321.02245835 685.32460775 319.612269 686.89918064 318.21875 688.48828125 C313.38708366 693.9800614 308.32090119 699.21024389 303.16015625 704.390625 C302.49943115 705.05594238 301.83870605 705.72125977 301.15795898 706.40673828 C296.67607232 710.87474226 292.0241723 715.0825765 287.22265625 719.203125 C286.2584375 720.04875 285.29421875 720.894375 284.30078125 721.765625 C262.74848051 740.34108862 239.15025805 756.51070426 214.22265625 770.203125 C212.91288818 770.92580566 212.91288818 770.92580566 211.57666016 771.66308594 C163.37189012 798.06277649 110.73315217 813.27121094 56.22265625 819.203125 C55.42699753 819.28974396 54.63133881 819.37636292 53.81156921 819.46560669 C46.68073898 820.18406994 39.60933029 820.37916426 32.4453125 820.40625 C31.23991318 820.41195007 30.03451385 820.41765015 28.79258728 820.42352295 C26.24527855 820.43292523 23.69795791 820.43948782 21.15063477 820.44335938 C17.35474743 820.45294919 13.55942989 820.48397101 9.76367188 820.515625 C-11.99625893 820.61019916 -33.56503233 818.94764038 -54.96484375 814.890625 C-56.10590576 814.67970215 -57.24696777 814.4687793 -58.42260742 814.25146484 C-132.21946335 800.27405385 -201.69980857 767.18613049 -257.3359375 716.42578125 C-258.8988265 715.0029271 -260.47339939 713.59273775 -262.0625 712.19921875 C-267.55428015 707.36755241 -272.78446264 702.30136994 -277.96484375 697.140625 C-278.96281982 696.14953735 -278.96281982 696.14953735 -279.98095703 695.13842773 C-284.44896101 690.65654107 -288.65679525 686.00464105 -292.77734375 681.203125 C-293.62296875 680.23890625 -294.46859375 679.2746875 -295.33984375 678.28125 C-313.91530737 656.72894926 -330.08492301 633.1307268 -343.77734375 608.203125 C-344.50002441 606.89335693 -344.50002441 606.89335693 -345.23730469 605.55712891 C-371.63699524 557.35235887 -386.84542969 504.71362092 -392.77734375 450.203125 C-392.86396271 449.40746628 -392.95058167 448.61180756 -393.03982544 447.79203796 C-393.75828869 440.66120773 -393.95338301 433.58979904 -393.98046875 426.42578125 C-393.98616882 425.22038193 -393.9918689 424.0149826 -393.9977417 422.77305603 C-394.00714398 420.2257473 -394.01370657 417.67842666 -394.01757812 415.13110352 C-394.02716794 411.33521618 -394.05818976 407.53989864 -394.08984375 403.74414062 C-394.18441791 381.98420982 -392.52185913 360.41543642 -388.46484375 339.015625 C-388.2539209 337.87456299 -388.04299805 336.73350098 -387.82568359 335.55786133 C-373.8482726 261.7610054 -340.76034924 192.28066018 -290 136.64453125 C-288.57714585 135.08164225 -287.1669565 133.50706936 -285.7734375 131.91796875 C-280.94177116 126.4261886 -275.87558869 121.19600611 -270.71484375 116.015625 C-269.7237561 115.01764893 -269.7237561 115.01764893 -268.71264648 113.99951172 C-264.23075982 109.53150774 -259.5788598 105.3236735 -254.77734375 101.203125 C-253.813125 100.3575 -252.84890625 99.511875 -251.85546875 98.640625 C-230.30316801 80.06516138 -206.70494555 63.89554574 -181.77734375 50.203125 C-180.90416504 49.72133789 -180.03098633 49.23955078 -179.13134766 48.74316406 C-130.92657762 22.34347351 -78.28783967 7.13503906 -23.77734375 1.203125 C-22.98168503 1.11650604 -22.18602631 1.02988708 -21.36625671 0.94064331 C-14.23542648 0.22218006 -7.16401779 0.02708574 0 0 Z M-60.16015625 20.65722656 C-62.86225668 21.22083632 -65.56914388 21.75560038 -68.27734375 22.2890625 C-131.97818507 35.13055299 -196.66912715 67.07266527 -244.22265625 111.82421875 C-246.23696153 113.69992505 -248.27838958 115.49552052 -250.3671875 117.28515625 C-255.35315341 121.63212021 -260.03822333 126.2779391 -264.71313477 130.95361328 C-266.2037599 132.44205737 -267.70221392 133.92229777 -269.20117188 135.40234375 C-275.51111378 141.67593004 -281.23303275 148.23223687 -286.77734375 155.203125 C-287.65221694 156.24260177 -288.53232528 157.27774234 -289.421875 158.3046875 C-296.48419219 166.52497022 -302.64788283 175.27751394 -308.77734375 184.203125 C-309.21046875 184.82558105 -309.64359375 185.44803711 -310.08984375 186.08935547 C-320.68908094 201.32989926 -329.8272347 217.54730755 -337.85058594 234.28027344 C-338.78212276 236.21304057 -339.73538683 238.13393116 -340.69140625 240.0546875 C-357.41687631 274.09967883 -368.54859659 311.66991913 -373.77734375 349.203125 C-373.926875 350.22825195 -374.07640625 351.25337891 -374.23046875 352.30957031 C-379.6623266 391.2105695 -379.12510004 432.45385248 -372.77734375 471.203125 C-372.49648926 472.9655957 -372.49648926 472.9655957 -372.20996094 474.76367188 C-366.4604226 509.89642945 -354.9363035 544.05392176 -339.77734375 576.203125 C-339.11049561 577.61948242 -339.11049561 577.61948242 -338.43017578 579.06445312 C-323.58264892 610.28928492 -304.59821776 640.50600748 -280.9375 665.8671875 C-279.16053852 667.78874802 -277.4587818 669.74276462 -275.7578125 671.73046875 C-271.25630239 676.88876148 -266.43855602 681.72796872 -261.59960938 686.56616211 C-260.03874048 688.12921234 -258.48606487 689.70009865 -256.93359375 691.27148438 C-251.24409876 696.99205812 -245.44081308 702.31692706 -239.11303711 707.33496094 C-237.0338546 708.99795922 -235.05220778 710.71780523 -233.08984375 712.515625 C-217.48169087 726.25586506 -199.55865245 737.71742731 -181.61181641 748.13525391 C-179.77850491 749.20244907 -177.95591496 750.28657403 -176.1328125 751.37109375 C-142.18353379 771.29851847 -103.74478386 784.52261187 -65.37402344 792.64892578 C-62.89201947 793.17865021 -60.41686569 793.73358579 -57.94140625 794.29296875 C-34.0235082 799.55253853 -9.76116935 800.79142962 14.66450119 800.70965958 C16.76031966 800.70300542 18.85610684 800.70120882 20.95193481 800.69979858 C42.73076116 800.6650133 63.8179759 799.38508323 85.22265625 795.203125 C87.59205002 794.77772571 89.96183264 794.35448557 92.33203125 793.93359375 C103.28592745 791.92691896 114.05744031 789.48198059 124.65039062 786.03857422 C126.57875195 785.41225945 128.5102904 784.79571256 130.44335938 784.18408203 C183.41107579 767.39843624 234.8677994 741.97815022 275.66796875 703.58203125 C277.68227403 701.70632495 279.72370208 699.91072948 281.8125 698.12109375 C286.79846591 693.77412979 291.48353583 689.1283109 296.15844727 684.45263672 C297.6490724 682.96419263 299.14752642 681.48395223 300.64648438 680.00390625 C306.24263995 674.43958207 311.42457205 668.74254147 316.33691406 662.55639648 C318.00681824 660.47247541 319.73191018 658.48388729 321.53515625 656.515625 C331.15102378 645.60873822 339.39340361 633.42962912 347.22265625 621.203125 C347.64337402 620.5524707 348.0640918 619.90181641 348.49755859 619.23144531 C365.83650222 592.26844317 379.4780177 563.14070118 389.59765625 532.765625 C389.84509583 532.0232962 390.0925354 531.28096741 390.34747314 530.5161438 C396.83981505 510.91548807 401.96935035 491.27923876 405.28515625 470.890625 C405.44765869 469.89538818 405.61016113 468.90015137 405.77758789 467.87475586 C406.28713746 464.65451656 406.75691284 461.4299788 407.22265625 458.203125 C407.40723389 457.04643311 407.59181152 455.88974121 407.78198242 454.69799805 C409.76013636 440.7525835 409.48827746 426.74552481 409.41827393 412.69116211 C409.40745813 409.95907588 409.40785773 407.22703894 409.40825939 404.49493504 C409.40773933 385.71312251 409.02545867 367.47072727 406.03515625 348.890625 C405.8713446 347.86489883 405.8713446 347.86489883 405.70422363 346.81845093 C397.6097041 296.4238906 380.75683487 247.92578521 354.22265625 204.203125 C353.72765625 203.38231445 353.23265625 202.56150391 352.72265625 201.71582031 C346.25160958 191.0444914 339.2890466 180.89878529 331.64111328 171.0390625 C330.26700684 169.26052886 328.91196669 167.46914904 327.5625 165.671875 C323.12532203 159.78474972 318.5300204 154.12973049 313.5234375 148.71484375 C311.6904869 146.71384674 309.92118796 144.68479696 308.15625 142.625 C303.80200484 137.63715598 299.15227122 132.94667376 294.47216797 128.26733398 C292.98372388 126.77670885 291.50348348 125.27825483 290.0234375 123.77929688 C284.51874497 118.24252066 278.86621876 113.11127475 272.75268555 108.23681641 C270.48514629 106.41412008 268.30170315 104.53558395 266.1328125 102.59765625 C261.81951094 98.788578 257.27206285 95.32837165 252.66015625 91.890625 C251.78174072 91.23545898 250.9033252 90.58029297 249.99829102 89.90527344 C202.92313989 55.02209363 146.08384459 28.96284159 88.0625 19.81640625 C85.43321504 19.39646959 82.83669353 18.9462642 80.2265625 18.43359375 C59.74287916 14.44223678 39.10120064 13.8519106 18.28100586 13.88745117 C14.42467981 13.89061309 10.56912286 13.86703303 6.71289062 13.84179688 C-15.95064804 13.78436939 -37.98469618 15.99802086 -60.16015625 20.65722656 Z " fill="#4586EB" transform="translate(393.77734375,-0.203125)"/>
<path d="M0 0 C34.37061093 -1.8747606 73.31331242 18.01606195 99.015625 39.5234375 C101.37908802 41.64765426 103.69011537 43.81796876 106 46 C107.3087602 47.10859687 108.62116359 48.21290974 109.9375 49.3125 C141.08817481 76.72509383 161.10105904 118.93398058 165 160 C165.08467529 160.87906006 165.16935059 161.75812012 165.2565918 162.66381836 C169.67092516 211.32497736 157.14169346 257.34827006 127 296 C124.27466753 299.24556006 121.40641366 302.32906208 118.47265625 305.38671875 C116.6920001 307.26864444 115.03528342 309.13462105 113.3984375 311.1328125 C110.24985121 314.89675768 106.77581215 317.88241184 103 321 C101.51693359 322.23943359 101.51693359 322.23943359 100.00390625 323.50390625 C73.10164875 345.57029559 35.41317454 364.58566441 0 364 C3.94861188 360.67405384 8.09724513 358.03241861 12.5 355.375 C23.92696234 348.34352707 34.26938661 340.25458338 44 331 C44.55413574 330.47841309 45.10827148 329.95682617 45.67919922 329.41943359 C79.72613467 297.18418673 100.85054108 253.87226597 106.68823242 207.42724609 C106.94327738 205.44161022 107.25469434 203.46328715 107.58203125 201.48828125 C110.13390516 180.19086627 108.03067837 156.80076144 103 136 C102.75491699 134.93483154 102.75491699 134.93483154 102.50488281 133.84814453 C94.63670391 99.86662879 77.85379311 70.09731676 55 44 C53.93635074 42.70927955 52.87362367 41.41779758 51.8125 40.125 C49.17987953 37.06485996 46.24630521 34.46802749 43.16796875 31.86328125 C41.70248107 30.603754 40.26764289 29.30780873 38.86328125 27.98046875 C27.30544106 17.08980439 13.93845175 8.51041774 0 1 C0 0.67 0 0.34 0 0 Z " fill="#1B145E" transform="translate(427,225)"/>
<path d="M0 0 C18.14206547 0.73748234 35.16447822 5.48338073 52 12 C52.64662598 12.24476074 53.29325195 12.48952148 53.95947266 12.74169922 C72.99737574 20.01893382 90.73294909 31.77326208 105.546875 45.69921875 C107.68874432 47.70807389 109.87802312 49.61130093 112.125 51.5 C143.332805 78.92504076 162.50949582 123.37845826 165.6796875 164.28515625 C167.32331971 190.55039895 166.02914253 216.11028158 157 241 C156.56489273 242.28594722 156.13132455 243.57241612 155.69921875 244.859375 C147.23328842 269.39900914 132.7007482 292.04397186 114 310 C112.7625 311.2375 112.7625 311.2375 111.5 312.5 C110.2625 313.7375 110.2625 313.7375 109 315 C108.28263672 315.804375 108.28263672 315.804375 107.55078125 316.625 C96.39294522 328.66041864 81.51288469 337.57578885 67 345 C65.98172119 345.52352051 65.98172119 345.52352051 64.94287109 346.05761719 C50.29272754 353.49406432 35.4368131 358.45355593 19.375 361.875 C17.86377563 362.19827271 17.86377563 362.19827271 16.32202148 362.52807617 C10.76863976 363.64709998 5.66335554 364.22868657 0 364 C3.46457762 361.04010494 7.05430995 358.72452837 10.9765625 356.44873047 C21.55552058 350.28903215 30.79022586 343.02954035 40 335 C40.52625977 334.54818359 41.05251953 334.09636719 41.59472656 333.63085938 C47.23722085 328.78571553 52.23432064 323.69724219 57 318 C58.24910156 316.58267578 58.24910156 316.58267578 59.5234375 315.13671875 C79.1659385 292.74252161 93.1591038 265.70264718 101 237 C101.33644531 235.84371094 101.67289063 234.68742188 102.01953125 233.49609375 C111.6771508 198.22950551 110.85620436 157.8784438 100 123 C99.74734375 122.18273437 99.4946875 121.36546875 99.234375 120.5234375 C91.43964441 95.84012397 79.5337072 72.96208139 63 53 C62.51837402 52.41154297 62.03674805 51.82308594 61.54052734 51.21679688 C44.33522836 30.31326531 24.037582 13.53269792 0 1 C0 0.67 0 0.34 0 0 Z " fill="#1B145E" transform="translate(507,225)"/>
<path d="M0 0 C7.59 0 15.18 0 23 0 C23 8.91 23 17.82 23 27 C24.98 27 26.96 27 29 27 C44.74130449 31.66409022 57.16298115 40.28078448 65.1640625 54.84375 C74 71.61513463 74 71.61513463 74 80 C66.74 80 59.48 80 52 80 C51.319375 78.06125 50.63875 76.1225 49.9375 74.125 C45.92370983 63.79258217 40.98050122 56.21948473 31 51 C20.27827743 46.31845396 6.52472774 46.5982034 -4.5234375 50.00390625 C-7.72993607 51.29358628 -10.51595159 52.93700005 -13.34375 54.9140625 C-15 56 -15 56 -18 57 C-19.12153356 58.83074675 -19.12153356 58.83074675 -20 61 C-20.34160156 61.67160156 -20.68320312 62.34320313 -21.03515625 63.03515625 C-21.37417969 63.70417969 -21.71320313 64.37320313 -22.0625 65.0625 C-22.40410156 65.73410156 -22.74570312 66.40570313 -23.09765625 67.09765625 C-26.2458354 73.73472658 -26.10850068 82.71660878 -24.28125 89.77734375 C-20.96779251 97.59336243 -16.24417859 102.50872805 -8.6875 106.125 C-7.63961304 106.63691895 -7.63961304 106.63691895 -6.57055664 107.15917969 C0.10433776 110.28394826 6.87768243 112.03461966 14.05615234 113.57324219 C35.74708623 118.33533116 59.80252047 124.35992216 73.375 143.375 C78.67440364 152.23166253 80.6901068 160.60427337 80.5 170.875 C80.48791504 171.9263916 80.47583008 172.9777832 80.46337891 174.06103516 C80.07394068 189.32465334 74.77981409 201.63343473 64.3046875 212.83984375 C53.04184934 223.39636833 38.38566763 229.57262034 23 230 C23 237.26 23 244.52 23 252 C15.41 252 7.82 252 0 252 C0 244.74 0 237.48 0 230 C-1.98 229.67 -3.96 229.34 -6 229 C-21.83917121 225.59786799 -36.01492111 217.25301203 -45.21875 203.8125 C-52.8009967 191.84053153 -55.71643596 180.11920441 -57 166 C-49.41 166 -41.82 166 -34 166 C-33.484375 168.578125 -32.96875 171.15625 -32.4375 173.8125 C-29.9402241 184.98676955 -24.84180996 194.61612327 -15 201 C-0.52800352 208.23599824 17.85333974 209.88894613 33.4609375 205.03125 C42.02689829 201.55215208 47.84170372 197.42897894 52 189 C54.16995228 183.83701009 54.36633121 179.13835056 54.375 173.625 C54.41173828 172.40683594 54.41173828 172.40683594 54.44921875 171.1640625 C54.48849261 162.99509943 51.53485864 156.99079528 46 151 C33.4766916 140.64150141 14.37360924 137.29047861 -1.125 133.875 C-16.28183978 130.52560496 -33.29595392 124.88212117 -43 112 C-51.23962192 98.3626628 -53.22695986 83.09492569 -50.34765625 67.45703125 C-45.59246837 52.00777278 -35.83842273 40.135776 -22 32 C-14.59814362 28.29907181 -8.37195154 26.04649394 0 25 C0 16.75 0 8.5 0 0 Z " fill="#4586EB" transform="translate(318,281)"/>
</svg>
